HIERARCHY
ROOT Hips
{
	OFFSET 0.000000 100.481300 0.000000
	CHANNELS 6 Xposition Yposition Zposition Xrotation Yrotation Zrotation
	JOINT Spine
	{
		OFFSET -0.279200 12.230698 -2.892100
		CHANNELS 3 Xrotation Yrotation Zrotation
		JOINT Spine1
		{
			OFFSET -0.325700 14.269203 -3.374200
			CHANNELS 3 Xrotation Yrotation Zrotation
			JOINT Spine2
			{
				OFFSET -0.372300 16.307602 -0.352600
				CHANNELS 3 Xrotation Yrotation Zrotation
				JOINT Neck
				{
					OFFSET -0.418800 17.814194 8.416900
					CHANNELS 3 Xrotation Yrotation Zrotation
					JOINT Head
					{
						OFFSET 0.000000 7.031097 3.806800
						CHANNELS 3 Xrotation Yrotation Zrotation
						JOINT HeadTop_End
						{
							OFFSET 0.000000 24.646606 12.978600
							CHANNELS 3 Xrotation Yrotation Zrotation
							End Site
							{
								OFFSET 0.000000 27.854965 0.000000
							}
						}
					}
				}
				JOINT LeftShoulder
				{
					OFFSET 16.952999 14.495407 -7.737500
					CHANNELS 3 Xrotation Yrotation Zrotation
					JOINT LeftArm
					{
						OFFSET 9.308998 -2.777710 0.208600
						CHANNELS 3 Xrotation Yrotation Zrotation
						JOINT LeftForeArm
						{
							OFFSET 29.972298 0.000000 0.000000
							CHANNELS 3 Xrotation Yrotation Zrotation
							JOINT LeftHand
							{
								OFFSET 26.026505 0.000000 0.000000
								CHANNELS 3 Xrotation Yrotation Zrotation
								JOINT LeftHandThumb1
								{
									OFFSET 12.240501 -7.147949 9.207150
									CHANNELS 3 Xrotation Yrotation Zrotation
									JOINT LeftHandThumb2
									{
										OFFSET 4.138618 -2.389435 2.389433
										CHANNELS 3 Xrotation Yrotation Zrotation
										JOINT LeftHandThumb3
										{
											OFFSET 2.726913 -1.574387 1.574386
											CHANNELS 3 Xrotation Yrotation Zrotation
											JOINT LeftHandThumb4
											{
												OFFSET 3.941010 -2.275345 2.275342
												CHANNELS 3 Xrotation Yrotation Zrotation
												End Site
												{
													OFFSET -0.005798 5.087799 0.009903
												}
											}
										}
									}
								}
								JOINT LeftHandIndex1
								{
									OFFSET 24.424698 -1.985611 5.953459
									CHANNELS 3 Xrotation Yrotation Zrotation
									JOINT LeftHandIndex2
									{
										OFFSET 6.426697 0.000000 0.000000
										CHANNELS 3 Xrotation Yrotation Zrotation
										JOINT LeftHandIndex3
										{
											OFFSET 5.337898 0.000000 0.000000
											CHANNELS 3 Xrotation Yrotation Zrotation
											JOINT LeftHandIndex4
											{
												OFFSET 4.409401 0.000000 0.000000
												CHANNELS 3 Xrotation Yrotation Zrotation
												End Site
												{
													OFFSET 0.000000 4.409363 0.014373
												}
											}
										}
									}
								}
								JOINT LeftHandMiddle1
								{
									OFFSET 23.810104 0.000000 0.000000
									CHANNELS 3 Xrotation Yrotation Zrotation
									JOINT LeftHandMiddle2
									{
										OFFSET 7.176498 0.000000 0.000000
										CHANNELS 3 Xrotation Yrotation Zrotation
										JOINT LeftHandMiddle3
										{
											OFFSET 6.774902 0.000000 0.000000
											CHANNELS 3 Xrotation Yrotation Zrotation
											JOINT LeftHandMiddle4
											{
												OFFSET 5.403328 0.000000 0.000000
												CHANNELS 3 Xrotation Yrotation Zrotation
												End Site
												{
													OFFSET -0.027702 5.403244 0.017414
												}
											}
										}
									}
								}
								JOINT LeftHandRing1
								{
									OFFSET 22.908401 -0.839279 -6.020567
									CHANNELS 3 Xrotation Yrotation Zrotation
									JOINT LeftHandRing2
									{
										OFFSET 6.337502 0.000000 0.000000
										CHANNELS 3 Xrotation Yrotation Zrotation
										JOINT LeftHandRing3
										{
											OFFSET 5.779297 0.000000 0.000000
											CHANNELS 3 Xrotation Yrotation Zrotation
											JOINT LeftHandRing4
											{
												OFFSET 4.965698 0.000000 0.000000
												CHANNELS 3 Xrotation Yrotation Zrotation
												End Site
												{
													OFFSET 0.000000 4.965668 0.016186
												}
											}
										}
									}
								}
								JOINT LeftHandPinky1
								{
									OFFSET 20.037003 -1.530319 -10.950146
									CHANNELS 3 Xrotation Yrotation Zrotation
									JOINT LeftHandPinky2
									{
										OFFSET 5.254700 0.000000 0.000000
										CHANNELS 3 Xrotation Yrotation Zrotation
										JOINT LeftHandPinky3
										{
											OFFSET 4.810204 0.000000 0.000000
											CHANNELS 3 Xrotation Yrotation Zrotation
											JOINT LeftHandPinky4
											{
												OFFSET 3.647202 0.000000 0.000000
												CHANNELS 3 Xrotation Yrotation Zrotation
												End Site
												{
													OFFSET 0.000000 3.647186 0.011889
												}
											}
										}
									}
								}
							}
						}
					}
				}
				JOINT RightShoulder
				{
					OFFSET -15.141001 14.495407 -7.737500
					CHANNELS 3 Xrotation Yrotation Zrotation
					JOINT RightArm
					{
						OFFSET -9.308998 -2.777710 0.208500
						CHANNELS 3 Xrotation Yrotation Zrotation
						JOINT RightForeArm
						{
							OFFSET -29.972300 0.000000 0.000000
							CHANNELS 3 Xrotation Yrotation Zrotation
							JOINT RightHand
							{
								OFFSET -26.026505 0.000000 0.000000
								CHANNELS 3 Xrotation Yrotation Zrotation
								JOINT RightHandThumb1
								{
									OFFSET -12.240601 -7.148026 9.207092
									CHANNELS 3 Xrotation Yrotation Zrotation
									JOINT RightHandThumb2
									{
										OFFSET -4.138618 -2.389435 2.389433
										CHANNELS 3 Xrotation Yrotation Zrotation
										JOINT RightHandThumb3
										{
											OFFSET -2.726974 -1.574417 1.574421
											CHANNELS 3 Xrotation Yrotation Zrotation
											JOINT RightHandThumb4
											{
												OFFSET -3.941010 -2.275345 2.275343
												CHANNELS 3 Xrotation Yrotation Zrotation
												End Site
												{
													OFFSET 0.005814 5.087799 0.009927
												}
											}
										}
									}
								}
								JOINT RightHandIndex1
								{
									OFFSET -24.424698 -1.985657 5.953444
									CHANNELS 3 Xrotation Yrotation Zrotation
									JOINT RightHandIndex2
									{
										OFFSET -6.426697 0.000000 0.000000
										CHANNELS 3 Xrotation Yrotation Zrotation
										JOINT RightHandIndex3
										{
											OFFSET -5.337898 0.000000 0.000000
											CHANNELS 3 Xrotation Yrotation Zrotation
											JOINT RightHandIndex4
											{
												OFFSET -4.409401 0.000000 0.000000
												CHANNELS 3 Xrotation Yrotation Zrotation
												End Site
												{
													OFFSET 0.000000 4.409363 0.014408
												}
											}
										}
									}
								}
								JOINT RightHandMiddle1
								{
									OFFSET -23.810097 0.000000 0.000000
									CHANNELS 3 Xrotation Yrotation Zrotation
									JOINT RightHandMiddle2
									{
										OFFSET -7.176498 0.000000 0.000000
										CHANNELS 3 Xrotation Yrotation Zrotation
										JOINT RightHandMiddle3
										{
											OFFSET -6.774902 0.000000 0.000000
											CHANNELS 3 Xrotation Yrotation Zrotation
											JOINT RightHandMiddle4
											{
												OFFSET -5.403328 0.000000 0.000000
												CHANNELS 3 Xrotation Yrotation Zrotation
												End Site
												{
													OFFSET 0.027702 5.403244 0.017457
												}
											}
										}
									}
								}
								JOINT RightHandRing1
								{
									OFFSET -22.908302 -0.839325 -6.020576
									CHANNELS 3 Xrotation Yrotation Zrotation
									JOINT RightHandRing2
									{
										OFFSET -6.337502 0.000000 0.000000
										CHANNELS 3 Xrotation Yrotation Zrotation
										JOINT RightHandRing3
										{
											OFFSET -5.779297 0.000000 0.000000
											CHANNELS 3 Xrotation Yrotation Zrotation
											JOINT RightHandRing4
											{
												OFFSET -4.965698 0.000000 0.000000
												CHANNELS 3 Xrotation Yrotation Zrotation
												End Site
												{
													OFFSET 0.000000 4.965668 0.016226
												}
											}
										}
									}
								}
								JOINT RightHandPinky1
								{
									OFFSET -20.037003 -1.530334 -10.950259
									CHANNELS 3 Xrotation Yrotation Zrotation
									JOINT RightHandPinky2
									{
										OFFSET -5.254700 0.000000 0.000000
										CHANNELS 3 Xrotation Yrotation Zrotation
										JOINT RightHandPinky3
										{
											OFFSET -4.810204 0.000000 0.000000
											CHANNELS 3 Xrotation Yrotation Zrotation
											JOINT RightHandPinky4
											{
												OFFSET -3.647202 0.000000 0.000000
												CHANNELS 3 Xrotation Yrotation Zrotation
												End Site
												{
													OFFSET 0.000000 3.647186 0.011917
												}
											}
										}
									}
								}
							}
						}
					}
				}
			}
		}
	}
	JOINT LeftUpLeg
	{
		OFFSET 15.427100 -6.655098 0.678600
		CHANNELS 3 Xrotation Yrotation Zrotation
		JOINT LeftLeg
		{
			OFFSET 4.081073 -39.591068 13.024000
			CHANNELS 3 Xrotation Yrotation Zrotation
			JOINT LeftFoot
			{
				OFFSET -4.081074 -37.707932 -15.979700
				CHANNELS 3 Xrotation Yrotation Zrotation
				JOINT LeftToeBase
				{
					OFFSET 5.346399 -15.068900 20.645000
					CHANNELS 3 Xrotation Yrotation Zrotation
					JOINT LeftToe_End
					{
						OFFSET 2.754700 0.931300 11.300900
						CHANNELS 3 Xrotation Yrotation Zrotation
						End Site
						{
							OFFSET 0.000000 11.669021 0.000000
						}
					}
				}
			}
		}
	}
	JOINT RightUpLeg
	{
		OFFSET -15.569500 -6.655098 0.678600
		CHANNELS 3 Xrotation Yrotation Zrotation
		JOINT RightLeg
		{
			OFFSET -4.081825 -39.591045 13.023800
			CHANNELS 3 Xrotation Yrotation Zrotation
			JOINT RightFoot
			{
				OFFSET 4.081824 -37.707954 -15.979600
				CHANNELS 3 Xrotation Yrotation Zrotation
				JOINT RightToeBase
				{
					OFFSET -5.346400 -15.068900 20.645000
					CHANNELS 3 Xrotation Yrotation Zrotation
					JOINT RightToe_End
					{
						OFFSET -2.754700 0.931300 11.300900
						CHANNELS 3 Xrotation Yrotation Zrotation
						End Site
						{
							OFFSET 0.000000 11.669021 0.000000
						}
					}
				}
			}
		}
	}
}
MOTION
Frames: 4
Frame Time: 0.033333
3.968775 92.636711 5.749990 -16.325573 71.164499 6.351761 0.946782 2.401817 2.733151 -1.434309 0.591379 0.445757 -1.434250 0.555193 0.408055 1.876891 0.236402 0.017916 16.714369 6.530472 0.499833 -0.000000 0.000000 -0.000000 2.501158 -5.291356 -13.603999 -13.844189 -20.035740 -50.417338 0.000000 -21.633009 0.000009 -6.861826 -21.542867 6.835247 2.106616 -2.270746 3.572185 14.167067 3.323696 5.343731 -11.851041 -11.557317 12.855140 0.000001 -0.000001 -0.000001 -0.771807 -0.817886 -12.583684 0.015542 0.427055 -4.171098 0.114096 -1.151852 11.315018 0.000000 -0.000000 -0.000001 -0.077402 3.346279 -24.881420 0.019374 0.476791 -4.657944 0.000008 0.005879 -0.057403 -0.000000 -0.000001 -0.000002 1.276985 6.015635 -30.304938 0.131643 1.236165 -12.155709 0.058589 0.827512 -8.102680 -0.000001 -0.000000 0.000001 -1.302542 4.224244 -41.024158 0.134289 1.248439 -12.278313 0.377846 2.071655 -20.670249 0.000000 -0.000002 0.000001 1.094629 4.390557 15.317259 -7.612592 10.719940 60.824740 0.000014 12.529506 -0.000008 -18.407382 0.628046 18.751022 -2.070599 -4.025182 -13.865628 15.296861 -20.437992 -6.549408 -18.534364 15.161874 -11.482831 -0.000002 0.000001 -0.000006 -0.257289 1.271929 13.898510 0.781010 -2.583559 33.635195 0.134208 -1.111114 13.773478 -0.000002 0.000001 0.000000 -0.801691 -2.028554 29.761248 1.547821 -3.468843 48.082804 0.131297 -1.099196 13.622957 0.000001 -0.000001 0.000000 -1.366392 -2.554647 42.582060 1.055717 -2.954703 39.316574 0.243281 -1.487027 18.582231 -0.000001 0.000001 0.000000 -1.338254 -2.715628 40.097285 1.413197 -3.343332 45.816977 0.637601 -2.354012 30.306748 0.000005 -0.000001 -0.000003 -19.497917 -15.955421 1.600620 29.774270 -2.504830 6.672399 -5.278953 -26.518939 -6.572304 -2.169955 0.000010 -0.000001 0.000000 0.000001 0.000000 1.388605 -10.481534 8.557944 16.245018 8.380013 0.810693 -10.839273 -3.622786 -2.737541 -1.445892 0.000005 -0.000001 0.000000 -0.000001 -0.000000 
3.499454 92.678696 5.657522 -14.796970 72.669272 5.990243 1.670485 1.990401 3.071566 -0.892216 0.480368 0.626173 -0.891675 0.442568 0.587822 2.186816 -0.037585 -0.045335 18.317008 3.828967 1.320987 0.000001 0.000000 0.000000 2.569966 -4.987101 -13.528412 -13.103498 -19.005063 -49.872286 -0.000010 -22.331765 0.000016 -7.024646 -20.647052 9.203251 1.928993 -2.857311 3.356684 14.345989 3.524409 4.881727 -11.139268 -10.729782 11.249114 -0.000003 0.000000 0.000001 -0.763203 -0.844914 -12.405566 0.007966 0.305840 -2.985848 0.142204 -1.284232 12.636232 0.000001 0.000001 -0.000001 -0.092359 3.307368 -24.787475 0.012025 0.375610 -3.667863 0.000528 -0.078381 0.764893 0.000002 -0.000003 0.000001 1.163800 5.816724 -30.685834 0.116655 1.164397 -11.440050 0.047552 0.745821 -7.298108 0.000002 -0.000001 -0.000001 -1.786359 3.960022 -41.547289 0.121628 1.188780 -11.683004 0.369129 2.048446 -20.427977 0.000002 -0.000002 0.000001 1.023883 4.682575 15.296929 -7.688443 10.251604 59.568286 0.000003 11.511739 0.000008 -18.002931 0.492857 16.100013 -2.030266 -4.033876 -13.698667 15.154781 -20.259697 -6.671851 -18.624150 16.020226 -12.081993 -0.000001 -0.000000 -0.000002 -0.243056 1.377175 13.251913 0.728637 -2.503127 32.455146 0.126414 -1.078850 13.366148 -0.000002 0.000001 -0.000001 -0.805502 -1.950864 29.091610 1.497865 -3.423416 47.251532 0.133550 -1.108451 13.740008 -0.000002 -0.000001 0.000000 -1.361643 -2.503093 42.022749 1.001062 -2.886763 38.243879 0.235174 -1.462664 18.266702 0.000001 -0.000000 -0.000000 -1.416099 -2.641828 39.276419 1.380861 -3.311643 45.260358 0.614318 -2.313751 29.735010 -0.000000 0.000000 -0.000002 -20.245022 -16.342028 2.565737 29.650104 0.848161 5.892677 -5.049707 -27.632780 -7.032857 -4.416388 -0.000003 0.000001 -0.000000 0.000000 -0.000000 -0.048901 -10.374834 7.281749 16.983342 6.962908 0.915319 -11.250224 -3.811605 -2.445644 -1.455187 0.000039 0.000000 0.000000 -0.000002 -0.000000 
3.007471 92.679962 5.386063 -12.979846 74.195628 5.656890 2.427869 1.690029 3.619310 -0.276729 0.414153 0.875600 -0.276459 0.376800 0.835945 2.517246 -0.293524 -0.072220 19.782263 1.474903 1.936427 -0.000000 -0.000001 0.000000 2.616412 -4.802143 -13.443160 -12.446070 -17.771889 -49.595216 0.000010 -23.035259 0.000005 -7.344745 -19.689200 11.322542 1.781014 -3.342707 3.175146 14.925010 4.614519 3.985769 -9.611237 -8.517987 8.031582 0.000002 0.000001 -0.000001 -0.790948 -0.826594 -12.796617 0.004082 0.218947 -2.137092 0.167899 -1.393883 13.735834 -0.000003 0.000001 -0.000001 -0.023956 3.509885 -25.652131 0.007561 0.298304 -2.912191 0.001366 -0.126561 1.235128 -0.000002 0.000000 0.000004 1.084669 5.668389 -32.190115 0.106072 1.110839 -10.907091 0.041503 0.696734 -6.815250 0.000001 -0.000000 -0.000002 -2.406893 3.752046 -43.151615 0.111480 1.138667 -11.183772 0.362699 2.031091 -20.247133 0.000002 -0.000000 0.000000 0.942713 5.012236 15.257948 -7.348628 10.060943 58.313648 0.000010 10.654320 -0.000007 -17.015451 -0.220810 12.067807 -1.925642 -4.049062 -13.330277 15.147179 -20.251034 -6.681041 -18.726055 16.979883 -12.697803 -0.000002 0.000002 -0.000004 -0.199120 1.486919 11.762043 0.662430 -2.395979 30.906654 0.110623 -1.010052 12.498874 -0.000001 -0.000002 -0.000000 -0.837498 -1.708084 27.455153 1.398110 -3.328625 45.557785 0.132852 -1.105549 13.703059 0.000002 0.000000 -0.000001 -1.330289 -2.391470 40.588263 0.892343 -2.743391 36.030631 0.219306 -1.413710 17.634655 -0.000002 -0.000001 -0.000000 -1.595146 -2.412168 36.922524 1.309282 -3.239264 44.007206 0.571191 -2.236623 28.648952 -0.000001 0.000001 0.000001 -21.292524 -16.305772 3.192562 29.668747 3.908222 5.003016 -4.285743 -28.445445 -7.559063 -6.654904 -0.000029 0.000003 0.000000 -0.000001 0.000000 -1.808157 -10.220242 5.463948 18.094722 5.523259 0.989676 -11.766871 -4.011673 -1.895259 -1.455187 -0.000005 -0.000000 0.000000 -0.000001 -0.000000 
2.438388 92.734108 5.098811 -11.057770 75.740302 5.430236 3.187478 1.332621 4.123925 0.252597 0.351210 1.158490 0.252383 0.316155 1.117360 2.857382 -0.467793 -0.131299 21.022603 -0.490272 2.189901 0.000001 0.000000 0.000000 2.640448 -4.720433 -13.346931 -11.892456 -16.340579 -49.616844 0.000002 -23.728741 0.000004 -7.843158 -18.676891 13.153113 1.669257 -3.707236 3.036894 15.166701 5.043161 3.523823 -8.783114 -7.617851 6.323858 -0.000001 -0.000000 0.000002 -0.735289 -0.638414 -12.608686 0.002165 0.160044 -1.561906 0.198067 -1.511911 14.925355 0.000000 -0.000000 -0.000000 0.075324 3.711293 -25.535851 0.004712 0.234997 -2.293913 0.002261 -0.162788 1.588733 0.000001 0.000000 -0.000001 1.071739 5.646883 -32.359145 0.094187 1.047341 -10.276487 0.035070 0.640777 -6.265653 0.000002 0.000005 0.000002 -2.543152 3.748991 -43.624203 0.104121 1.100686 -10.806142 0.352346 2.002854 -19.953144 -0.000001 -0.000002 -0.000001 0.879366 5.286940 15.269060 -6.947555 9.748935 57.033972 -0.000002 9.943463 -0.000000 -15.154252 -1.433095 7.362906 -1.764846 -4.066487 -12.812491 15.199037 -20.318829 -6.637612 -18.765339 17.252530 -12.861768 -0.000001 -0.000000 -0.000002 -0.155415 1.539544 10.054669 0.603252 -2.294313 29.460054 0.088231 -0.903176 11.158333 0.000002 0.000001 -0.000004 -0.825933 -1.476162 25.352088 1.259375 -3.186873 43.116932 0.132852 -1.105578 13.703743 -0.000000 -0.000001 0.000000 -1.319465 -2.192136 38.572421 0.756128 -2.545800 33.079132 0.195270 -1.335768 16.633135 0.000000 0.000000 -0.000001 -1.747306 -2.176612 33.685311 1.217977 -3.142143 42.367035 0.512625 -2.125996 27.110079 -0.000001 0.000001 -0.000000 -21.941358 -15.796295 3.552346 29.420944 7.167755 4.048765 -3.553252 -28.803983 -8.011352 -7.982739 -0.000002 -0.000002 -0.000000 -0.000001 -0.000000 -3.612246 -9.998065 3.370921 19.253682 4.053790 1.038708 -12.228090 -4.202835 -1.261910 -1.455187 -0.000016 -0.000001 -0.000000 0.000001 0.000000 
